<svg id="Layer_1" data-name="Layer 1" xmlns="http://www.w3.org/2000/svg" xmlns:xlink="http://www.w3.org/1999/xlink" viewBox="0 0 485.29 564.18">
    <defs>
        <style>.cls-1,.cls-6{fill:none;}.cls-2{clip-path:url(#clip-path);}.cls-3,.cls-5{font-size:12px;font-family:Helvetica-Bold, Helvetica;font-weight:700;}.cls-4,.cls-5{fill:#25408f;}.cls-6{stroke:#000;stroke-width:1.5px;}</style>
        <clipPath id="clip-path" transform="translate(-55.25 -34.68)">
            <rect class="cls-1" width="595.28" height="841.89" />
        </clipPath>
    </defs>
    <title>plants</title>
    <g class="cls-2">
        <text class="cls-3" transform="translate(189.23 10.32)">opuntia</text>
        <text class="cls-3" transform="translate(340.44 121.65)">leaf</text>
        <text class="cls-3" transform="translate(105.33 121.65)">fruit</text>
        <path class="cls-4" d="M318.84,262.73h.31l.33,0v1.37H319q-.39,0-.48.21a2,2,0,0,0-.08.68v.11h1.1v1.18h-1.1v5.15h-1.65V266.3h-.94v-1.18h.91v-.41a2.18,2.18,0,0,1,.45-1.51,2.14,2.14,0,0,1,1.65-.47Zm1.67,0h1.63v1.52h-1.63Zm0,2.33h1.66v6.36h-1.66Zm6.73-.17a2.41,2.41,0,0,1,2,.91,3.68,3.68,0,0,1,.71,2.35,4.09,4.09,0,0,1-.7,2.46,2.58,2.58,0,0,1-3.25.67,2.68,2.68,0,0,1-.63-.66v.8h-1.64v-8.62h1.67v3.07a2.25,2.25,0,0,1,.7-.68,2,2,0,0,1,1.15-.3Zm-.42,5.33a1.15,1.15,0,0,0,1-.53,2.34,2.34,0,0,0,.36-1.37,3.22,3.22,0,0,0-.17-1.12,1.25,1.25,0,0,0-1.25-.85,1.24,1.24,0,0,0-1.25.83,3,3,0,0,0-.18,1.14,2.34,2.34,0,0,0,.37,1.36,1.24,1.24,0,0,0,1.11.54Zm6.95-5.35a3.65,3.65,0,0,1,1.5.3,2.54,2.54,0,0,1,1.1.94,3.2,3.2,0,0,1,.51,1.32,8.47,8.47,0,0,1,.06,1.27h-4.66a1.55,1.55,0,0,0,.67,1.35,1.7,1.7,0,0,0,.92.24,1.4,1.4,0,0,0,.93-.3,1.32,1.32,0,0,0,.34-.44h1.71a2.11,2.11,0,0,1-.62,1.16,3.1,3.1,0,0,1-2.4.93,3.45,3.45,0,0,1-2.25-.79,3.08,3.08,0,0,1-1-2.55,3.49,3.49,0,0,1,.88-2.55,3.09,3.09,0,0,1,2.29-.88Zm0,1.37a1.31,1.31,0,0,0-1,.37,1.68,1.68,0,0,0-.44,1h2.87a1.4,1.4,0,0,0-.44-1,1.48,1.48,0,0,0-1-.35Zm7.48-1.36h.22v1.72l-.28,0H341a1.39,1.39,0,0,0-1.35.65,2.56,2.56,0,0,0-.2,1.14v3.05h-1.68v-6.38h1.59v1.11a3.38,3.38,0,0,1,.68-.87,1.79,1.79,0,0,1,1.22-.4Zm2.49,4.5a1.16,1.16,0,0,0,.23.64,1.58,1.58,0,0,0,1.16.33,1.72,1.72,0,0,0,.78-.15.45.45,0,0,0,.29-.44.47.47,0,0,0-.23-.42,9.41,9.41,0,0,0-1.75-.51,3.6,3.6,0,0,1-1.53-.67,1.46,1.46,0,0,1-.45-1.15,2,2,0,0,1,.7-1.52,2.8,2.8,0,0,1,2-.64,3.59,3.59,0,0,1,2,.48,2,2,0,0,1,.86,1.65H346a1,1,0,0,0-.18-.51,1.13,1.13,0,0,0-.94-.34,1.41,1.41,0,0,0-.78.17.5.5,0,0,0-.23.4.44.44,0,0,0,.25.42,10.65,10.65,0,0,0,1.74.46,3.09,3.09,0,0,1,1.5.71,1.6,1.6,0,0,1,.49,1.2,2,2,0,0,1-.71,1.55,3.32,3.32,0,0,1-2.18.6,3.26,3.26,0,0,1-2.23-.64,2.05,2.05,0,0,1-.72-1.62Z" transform="translate(-55.25 -34.68)" />
        <text class="cls-5" transform="translate(322.61 289.27)">adhesives </text>
        <text class="cls-5" transform="translate(327.63 303.67)">for paint</text>
        <path class="cls-4" d="M258.25,331.12h.31l.33,0v1.37h-.5c-.26,0-.42.08-.48.22a1.75,1.75,0,0,0-.07.68v.11h1.09v1.18h-1.09v5.15h-1.66v-5.15h-.94v-1.18h.91v-.41a2.23,2.23,0,0,1,.45-1.52,2.18,2.18,0,0,1,1.65-.46Zm1.67,0h1.64v1.52h-1.64Zm0,2.33h1.66v6.36h-1.66Zm6.74-.17a2.4,2.4,0,0,1,2,.91,3.67,3.67,0,0,1,.72,2.34,4.1,4.1,0,0,1-.71,2.47,2.55,2.55,0,0,1-3.25.66,2.61,2.61,0,0,1-.63-.65v.8h-1.64v-8.62h1.67v3.07a2.25,2.25,0,0,1,.7-.68,2.06,2.06,0,0,1,1.16-.3Zm-.43,5.32a1.14,1.14,0,0,0,1-.52,2.36,2.36,0,0,0,.36-1.37,3,3,0,0,0-.17-1.12,1.24,1.24,0,0,0-1.24-.85,1.26,1.26,0,0,0-1.26.83,3,3,0,0,0-.18,1.13,2.32,2.32,0,0,0,.37,1.36,1.24,1.24,0,0,0,1.11.54Zm6.95-5.35a3.62,3.62,0,0,1,1.5.3,2.58,2.58,0,0,1,1.1.95,3,3,0,0,1,.51,1.32,7.24,7.24,0,0,1,.06,1.27H271.7a1.51,1.51,0,0,0,.66,1.34,1.74,1.74,0,0,0,.93.24,1.37,1.37,0,0,0,.92-.29,1.33,1.33,0,0,0,.35-.44h1.7a2.08,2.08,0,0,1-.62,1.16,3.1,3.1,0,0,1-2.4.93,3.45,3.45,0,0,1-2.25-.79,3.09,3.09,0,0,1-1-2.56,3.48,3.48,0,0,1,.88-2.54,3.1,3.1,0,0,1,2.29-.89Zm0,1.38a1.31,1.31,0,0,0-1,.37,1.75,1.75,0,0,0-.44,1h2.87a1.38,1.38,0,0,0-.44-1,1.52,1.52,0,0,0-1-.34Zm7.48-1.36h.22V335l-.28,0h-.2a1.38,1.38,0,0,0-1.35.66,2.56,2.56,0,0,0-.2,1.14v3h-1.68v-6.39h1.6v1.12a3.44,3.44,0,0,1,.67-.88,1.84,1.84,0,0,1,1.22-.39Zm2.49,4.5a1.17,1.17,0,0,0,.23.63,1.55,1.55,0,0,0,1.16.34,1.69,1.69,0,0,0,.78-.15.46.46,0,0,0,.29-.44.47.47,0,0,0-.23-.43,10.84,10.84,0,0,0-1.75-.5,3.66,3.66,0,0,1-1.53-.67,1.46,1.46,0,0,1-.45-1.15,2,2,0,0,1,.7-1.52,2.77,2.77,0,0,1,2-.64,3.57,3.57,0,0,1,1.95.48,2.08,2.08,0,0,1,.87,1.65h-1.67a1,1,0,0,0-.19-.51,1.12,1.12,0,0,0-.94-.34,1.35,1.35,0,0,0-.77.17.49.49,0,0,0-.24.4.43.43,0,0,0,.25.41,10.49,10.49,0,0,0,1.74.47,3.09,3.09,0,0,1,1.5.71,1.6,1.6,0,0,1,.49,1.2,1.92,1.92,0,0,1-.71,1.55,3.32,3.32,0,0,1-2.18.6,3.26,3.26,0,0,1-2.23-.64,2.05,2.05,0,0,1-.72-1.62Z" transform="translate(-55.25 -34.68)" />
        <text class="cls-3" transform="translate(48.67 236.77)">peel</text>
        <text class="cls-3" transform="translate(51.9 420.65)">red and purple peel</text>
        <text class="cls-3" transform="translate(99.97 236.77)">seeds</text>
        <text class="cls-5" transform="translate(109.98 324.6)">oil</text>
        <text class="cls-5" transform="translate(22.84 326.54)">hydrocolloids </text>
        <text class="cls-5" transform="translate(31.5 340.94)">(thickener)</text>
        <text class="cls-3" transform="translate(312.29 236.03)">hydrocolloids </text>
        <text class="cls-3" transform="translate(320.95 250.43)">(thickener)</text>
        <text class="cls-3" transform="translate(413.93 236.78)">juice</text>
        <text class="cls-3" transform="translate(165.87 236.78)">pulp</text>
        <a xlinkHref="https://en.wikipedia.org/wiki/Biofuel" target="_blank">
            <text class="cls-5" transform="translate(396.41 165.21)">biofuel</text>
        </a>
        <text class="cls-5" transform="translate(51.67 40.52)">
            <tspan xml:space="preserve"> cochineal insect / </tspan>
        </text>
        <text class="cls-5" transform="translate(47.01 54.92)">Dactylopius coccus</text>
        <line class="cls-6" x1="210.14" y1="18.76" x2="210.14" y2="35.2" />
        <line class="cls-6" x1="350.14" y1="130.09" x2="350.14" y2="146.53" />
        <line class="cls-6" x1="117.75" y1="130.09" x2="117.75" y2="146.53" />
        <line class="cls-6" x1="350.14" y1="180.32" x2="350.14" y2="214.7" />
        <line class="cls-6" x1="118.06" y1="180.32" x2="118.06" y2="214.7" />
        <line class="cls-6" x1="210.14" y1="35.2" x2="210.14" y2="91.31" />
        <line class="cls-6" x1="430.62" y1="197.51" x2="276.77" y2="197.51" />
        <line class="cls-6" x1="177.79" y1="197.51" x2="60.69" y2="197.51" />
        <line class="cls-6" x1="352.39" y1="92.31" x2="116.25" y2="92.31" />
        <line class="cls-6" x1="429.87" y1="388.53" x2="334.59" y2="388.53" />
        <line class="cls-6" x1="277.52" y1="198.26" x2="277.52" y2="214.7" />
        <line class="cls-6" x1="61.44" y1="198.26" x2="61.44" y2="214.7" />
        <line class="cls-6" x1="117" y1="93.06" x2="117" y2="109.5" />
        <line class="cls-6" x1="429.87" y1="197.26" x2="429.87" y2="213.7" />
        <line class="cls-6" x1="177.79" y1="197.26" x2="177.79" y2="213.7" />
        <line class="cls-6" x1="177.79" y1="250.82" x2="177.79" y2="267.26" />
        <line class="cls-6" x1="118.5" y1="250.82" x2="118.5" y2="267.26" />
        <line class="cls-6" x1="118.5" y1="293.15" x2="118.5" y2="309.59" />
        <line class="cls-6" x1="177.79" y1="293.15" x2="177.79" y2="309.59" />
        <line class="cls-6" x1="60.69" y1="250.82" x2="60.69" y2="267.26" />
        <line class="cls-6" x1="106.23" y1="431.39" x2="106.23" y2="447.83" />
        <line class="cls-6" x1="60.96" y1="293.15" x2="60.96" y2="309.59" />
        <line class="cls-6" x1="106.5" y1="473.72" x2="106.5" y2="490.16" />
        <line class="cls-6" x1="429.87" y1="250.82" x2="429.87" y2="267.26" />
        <line class="cls-6" x1="350.79" y1="258.82" x2="350.79" y2="275.26" />
        <line class="cls-6" x1="429.87" y1="473.72" x2="429.87" y2="490.16" />
        <line class="cls-6" x1="334.59" y1="473.72" x2="334.59" y2="490.16" />
        <line class="cls-6" x1="429.87" y1="368.56" x2="429.87" y2="404" />
        <line class="cls-6" x1="334.59" y1="387.56" x2="334.59" y2="404" />
        <line class="cls-6" x1="429.87" y1="430.64" x2="429.87" y2="447.08" />
        <line class="cls-6" x1="334.59" y1="430.64" x2="334.59" y2="447.08" />
        <line class="cls-6" x1="429.87" y1="293.15" x2="429.87" y2="309.59" />
        <text class="cls-3" transform="translate(330.46 165.2)">extract</text>
        <text class="cls-3" transform="translate(158.1 281.59)">extract</text>
        <text class="cls-5" transform="translate(164.1 325.59)">juice</text>
        <text class="cls-3" transform="translate(99.22 281.59)">crash</text>
        <text class="cls-3" transform="translate(42.02 281.59)">extract</text>
        <text class="cls-3" transform="translate(87.57 462.15)">extract</text>
        <text class="cls-3" transform="translate(86.64 165.2)">separation</text>
        <text class="cls-3" transform="translate(408.6 284.86)">ferment</text>
        <text class="cls-3" transform="translate(379.26 326.53)">mix with Glycerol, </text>
        <text class="cls-3" transform="translate(389.26 340.93)">natural waxes, </text>
        <text class="cls-3" transform="translate(394.61 355.33)">and proteins </text>
        <text class="cls-3" transform="translate(406.28 417.99)">laminate </text>
        <text class="cls-3" transform="translate(323.33 417.99)">cast</text>
        <text class="cls-3" transform="translate(421.28 464.01)">dry</text>
        <text class="cls-3" transform="translate(326.01 464.01)">dry</text>
        <text class="cls-5" transform="translate(394.26 505.98)">plastic sheet</text>
        <text class="cls-5" transform="translate(316.33 505.98)">plastic</text>
        <line class="cls-6" x1="378.11" y1="161.88" x2="388.11" y2="161.88" />
        <line class="cls-6" x1="210.89" y1="40.98" x2="171.47" y2="40.98" />
        <line class="cls-6" x1="352.39" y1="91.31" x2="352.39" y2="107.75" />
        <line class="cls-6" x1="194.98" y1="301.37" x2="178.54" y2="301.37" />
        <line class="cls-6" x1="0.75" y1="233.67" x2="0.75" y2="417.1" />
        <line class="cls-6" x1="1.5" y1="418.11" x2="43.17" y2="418.11" />
        <line class="cls-6" x1="0.5" y1="234.42" x2="42.17" y2="234.42" />
        <text class="cls-5" transform="translate(52.25 511.01)">pigment (betalains)</text>
        <text class="cls-3" transform="translate(345.3 544.01)">biodegredable</text>
        <text class="cls-3" transform="translate(349.3 558.41)">compostable</text>
    </g>
</svg>